<?xml version="1.0" standalone="no"?>
<!DOCTYPE svg PUBLIC "-//W3C//DTD SVG 1.1//EN" "http://www.w3.org/Graphics/SVG/1.1/DTD/svg11.dtd" >
<svg xmlns="http://www.w3.org/2000/svg">
<metadata>Generated by IcoMoon</metadata>
<defs>
<font id="icomoon" horiz-adv-x="1024">
<font-face units-per-em="1024" ascent="960" descent="-64" />
<missing-glyph horiz-adv-x="1024" />
<glyph unicode="&#x20;" horiz-adv-x="512" d="" />
<glyph unicode="&#xe900;" glyph-name="facebook" horiz-adv-x="591" d="M256 979.692c105.026 0 210.050 0 315.077 0 0-65.641 0-131.282 0-196.923-65.642 0-131.281 0-196.923 0 0-52.513 0-105.026 0-157.538 65.642 0 131.281 0 196.923 0 0-78.769 0-157.538 0-236.308-65.642 0-131.281 0-196.923 0 0-144.412 0-288.819 0-433.231-78.769 0-157.538 0-236.308 0 0 144.412 0 288.819 0 433.231-52.513 0-105.026 0-157.538 0 0 78.769 0 157.538 0 236.308 52.513 0 105.026 0 157.538 0-14.615 137.98 24.77 256.134 118.154 354.462z" />
<glyph unicode="&#xe901;" glyph-name="instagram" horiz-adv-x="986" d="M94.815 978.963c-25.284-50.568-63.21-88.494-113.778-113.778 0-278.123 0-556.248 0-834.37 37.926-12.641 63.21-37.926 75.852-75.852 278.123 0 556.248 0 834.37 0 12.641 37.926 37.926 63.211 75.852 75.852 0 290.767 0 581.531 0 872.296-37.926 12.642-63.211 37.926-75.852 75.852-265.481 0-530.963 0-796.444 0zM701.63 827.259c50.567 0 101.137 0 151.704 0 0-50.568 0-101.136 0-151.704-50.567 0-101.137 0-151.704 0 0 50.568 0 101.136 0 151.704zM398.222 599.704c235.292 7.066 285.863-87.749 151.704-284.444-231.65-2.962-282.218 91.853-151.704 284.444zM94.815 523.852c92.609 14.442 117.893-10.843 75.852-75.852 143.161-336.703 339.111-374.629 587.852-113.778 7.669 66.583 26.632 129.794 56.889 189.63 43.941-137.368 50.263-276.431 18.963-417.185-230.757-43.311-464.635-49.634-701.63-18.963-36.414 141.464-49.056 286.845-37.926 436.148z" />
<glyph unicode="&#xe902;" glyph-name="pinterest" horiz-adv-x="796" d="M246.519 978.963c-87.541-74.742-176.034-150.594-265.481-227.556 0-101.136 0-202.27 0-303.407 50.045-54.682 113.254-79.967 189.63-75.852-23.296-137.868-35.938-276.931-37.926-417.185 25.284 0 50.568 0 75.852 0 54.118 95.71 98.365 196.843 132.741 303.407 78.275-41.392 160.446-47.715 246.519-18.963 72.131 65.6 135.342 135.13 189.63 208.593 0 113.778 0 227.556 0 341.333-76.792 64.336-152.644 127.546-227.556 189.63-101.137 0-202.271 0-303.407 0zM170.667 372.148c-115.123 333.184-1.345 478.566 341.333 436.148 85.599-122.792 98.243-255.534 37.926-398.222-63.211-50.567-126.418-50.567-189.63 0 28.183 81.078 53.464 163.248 75.852 246.519-45.010 98.215-114.543 117.178-208.593 56.889-6.846-121.16-25.809-234.936-56.889-341.333z" />
<glyph unicode="&#xe903;" horiz-adv-x="1097" d="M12.19 972.19c0-16.254-8.127-24.381-24.381-24.381 0-227.555 0-455.112 0-682.667 51.296 7.287 100.058-0.839 146.286-24.381-31.431-64.624-19.241-121.512 36.571-170.667 60.952 60.952 121.905 121.905 182.857 182.857 91.67 26.117 164.813 1.736 219.429-73.143 65.017-8.126 130.031-16.255 195.048-24.381-8.126-8.126-16.255-16.255-24.381-24.381 31.303-16.672 59.746-12.607 85.333 12.19 30.805-51.371 75.503-75.752 134.095-73.143 0 32.507 0 65.017 0 97.524 24.381 0 48.762 0 73.143 0 0 130.031 0 260.064 0 390.095-56.888 0-113.779 0-170.667 0-29.394 129.395-29.394 267.553 0 414.476-8.126 0-16.255 0-24.381 0-8.126-32.508-16.255-32.508-24.381 0-8.126 0-16.255 0-24.381 0-56.888-32.508-113.779-32.508-170.667 0-48.762 0-97.524 0-146.286 0-73.143-32.508-146.286-32.508-219.429 0-40.635 0-81.27 0-121.905 0-24.381-32.508-48.762-32.508-73.143 0-16.254 0-32.508 0-48.762 0zM304.762 313.905c-16.384 18.71-36.701 34.965-60.952 48.762-58.041-22.796-118.994-30.922-182.857-24.381-4.056 187.097 0.008 374.018 12.19 560.762 229.586-24.017 461.205-32.144 694.857-24.381 0-178.793 0-357.588 0-536.381-156.599 7.1-311.013-1.029-463.238-24.381zM865.524 557.714c0-24.381 0-48.762 0-73.143 32.507 0 65.017 0 97.524 0 7.353-62.398-0.775-119.286-24.381-170.667 27.443-33.117 27.443-65.624 0-97.524-14.792 3.013-22.918 11.14-24.381 24.381-21.723 14.868-46.104 22.994-73.143 24.381-7.724 102.439 0.405 199.963 24.381 292.571zM841.143 265.143c-2.699-15.053-10.825-27.243-24.381-36.571-66.492-19.953-131.506-15.889-195.048 12.19 71.39 23.993 144.533 32.119 219.429 24.381z" />
<glyph unicode="&#xe904;" horiz-adv-x="1097" d="M329.143 777.143c118.618-30.604 236.459-30.604 353.524 0 11.947-31.53 16.011-64.039 12.19-97.524-170.667 0-341.333 0-512 0 0 24.381 0 48.762 0 73.143 54.5-7.186 103.263 0.942 146.286 24.381z" />
<glyph unicode="&#xe905;" horiz-adv-x="1097" d="M182.857 655.238c163.348 8.046 325.888-0.080 487.619-24.381-153.776-20.251-308.19-32.441-463.238-36.571 155.048-4.13 309.463-16.321 463.238-36.571-171.276-17.067-341.943-33.321-512-48.762-30.958 55.023-22.831 103.785 24.381 146.286z" />
<glyph unicode="&#xe906;" horiz-adv-x="1097" d="M963.048 655.238c32.507-16.255 32.507-16.255 0 0z" />
<glyph unicode="&#xe907;" horiz-adv-x="1097" d="M1084.952 484.571c0-32.507 0-65.017 0-97.524-32.507 32.507-32.507 65.017 0 97.524z" />
<glyph unicode="&#xe908;" horiz-adv-x="1097" d="M621.714 45.714c32.507-16.255 32.507-16.255 0 0z" />
<glyph unicode="&#xe909;" horiz-adv-x="1097" d="M719.238 45.714c32.507-16.255 32.507-16.255 0 0z" />
<glyph unicode="&#xe90a;" horiz-adv-x="1097" d="M329.143 21.333c32.507-16.255 32.507-16.255 0 0z" />
<glyph unicode="&#xe90b;" horiz-adv-x="1097" d="M621.714 21.333c-16.255-16.255-16.255-16.255 0 0z" />
<glyph unicode="&#xe90c;" horiz-adv-x="1097" d="M719.238 21.333c-16.255-16.255-16.255-16.255 0 0z" />
<glyph unicode="&#xe90d;" horiz-adv-x="1097" d="M938.667-51.81c-8.126 0-16.255 0-24.381 0-0.941 30.627 11.249 55.008 36.571 73.143 11.449-26.253 7.385-50.634-12.19-73.143z" />
<glyph unicode="&#xe90e;" horiz-adv-x="1097" d="M329.143-3.048c-16.255-16.255-16.255-16.255 0 0z" />
<glyph unicode="&#xe90f;" horiz-adv-x="1001" d="M420.978 812.089c-30.538-29.424-68.465-48.387-113.778-56.889-15.713-24.289-27.090-50.838-34.133-79.644-52.090 79.69-74.845 163.127-68.267 250.311-7.585-7.585-15.17-15.17-22.756-22.756-16.146 33.525-42.695 48.695-79.644 45.511 44.186-82.427 21.43-139.315-68.267-170.667 43.602-41.353 96.698-67.903 159.289-79.644 7.585-15.171 15.17-30.34 22.756-45.511-21.115-28.849-24.907-59.189-11.378-91.022 7.585 15.171 15.17 30.34 22.756 45.511 65.723-99.715 88.478-205.906 68.267-318.578 39.231 60.755 65.779 53.171 79.644-22.756-67.586-57.333-82.755-125.599-45.511-204.8 94.019-94.122 181.248-86.535 261.689 22.756 18.509 91.065 75.398 136.577 170.667 136.533 28.46 39.137 62.594 46.722 102.4 22.756 7.22 40.978 22.391 48.563 45.511 22.756 21.588 36.252 48.137 66.592 79.644 91.022 0 15.171 0 30.34 0 45.511-25.236-1.295-47.991-8.879-68.267-22.756-10.531 61.918-25.702 122.6-45.511 182.044-28.981 15.688-28.981 34.652 0 56.889-86.99 14.029-166.634-4.933-238.933-56.889-16.391 36.691-12.597 70.824 11.378 102.4-20.849 8.515-39.813 19.893-56.889 34.133-8.222 118.868-65.11 156.794-170.667 113.778zM466.489 766.578c19.943 2.978 35.114-4.607 45.511-22.756 15.171-37.927 30.34-75.851 45.511-113.778-47.4-33.194-96.704-63.536-147.911-91.022-12.682 48.121-31.644 93.632-56.889 136.533 34.468 36.004 72.395 66.344 113.778 91.022zM694.044 356.978c-15.171 30.34-30.34 30.34-45.511 0-21.575-34.379-63.295-64.719-125.156-91.022-46.11 9.437-80.243 32.192-102.4 68.267 30.117-30.718 52.873-26.927 68.267 11.378-14.736 32.761-22.321 66.895-22.756 102.4 111.709 46.132 225.487 80.266 341.333 102.4-7.584-7.584-15.171-15.171-22.756-22.756 36.398-24.253 59.153-58.386 68.267-102.4-47.266-35.995-100.361-58.75-159.289-68.267zM352.711 493.511c44.337-41.424 67.092-94.522 68.267-159.289-35.617 45.723-58.373 98.821-68.267 159.289zM921.6 379.733c-16.018-41.966-46.358-53.344-91.022-34.133 31.874 9.332 62.214 20.71 91.022 34.133zM557.511 265.956c17.956-6.435 33.128-17.813 45.511-34.133-29.946-12.017-45.117-0.639-45.511 34.133zM512 197.689c-78.498 16.921-116.422-13.419-113.778-91.022-29.603 31.505-29.603 65.638 0 102.4 42.937 17.74 80.864 13.947 113.778-11.378zM512 197.689c29.307-34.925 29.307-72.852 0-113.778-48.242-34.345-86.168-26.761-113.778 22.756 37.927 0 75.851 0 113.778 0 0 30.34 0 60.682 0 91.022z" />
<glyph unicode="&#xe910;" horiz-adv-x="1001" d="M420.978 812.089c-15.171 30.341-15.171 30.341 0 0z" />
<glyph unicode="&#xe911;" horiz-adv-x="1001" d="M876.089 584.533c30.34-15.171 30.34-15.171 0 0z" />
<glyph unicode="&#xe912;" horiz-adv-x="1001" d="M125.156 561.778c30.341-15.171 30.341-15.171 0 0z" />
<glyph unicode="&#xe913;" horiz-adv-x="1001" d="M102.4 470.756c16.814 2.981 31.985-0.812 45.511-11.378-34.133-34.133-68.267-68.267-102.4-102.4 1.317 44.041 20.28 81.968 56.889 113.778z" />
<glyph unicode="&#xe914;" horiz-adv-x="1001" d="M216.178 334.222c28.975-13.125 28.975-28.297 0-45.511-21.912 10.691-21.912 25.862 0 45.511z" />
<glyph unicode="&#xe915;" horiz-adv-x="1001" d="M762.311 220.444c30.34-15.171 30.34-15.171 0 0z" />
<glyph unicode="&#xe916;" horiz-adv-x="1001" d="M512 197.689c0-30.34 0-60.682 0-91.022-37.927 0-75.851 0-113.778 0-2.644 77.603 35.28 107.943 113.778 91.022z" />
<glyph unicode="&#xe917;" horiz-adv-x="1001" d="M762.311 197.689c-15.171-15.171-15.171-15.171 0 0z" />
<glyph unicode="&#xe918;" horiz-adv-x="1001" d="M671.289 129.422c30.34-15.171 30.34-15.171 0 0z" />
<glyph unicode="&#xe919;" horiz-adv-x="1001" d="M329.956 61.156c-15.171-15.171-15.171-15.171 0 0z" />
<glyph unicode="&#xe91a;" horiz-adv-x="1001" d="M238.933-52.622c-7.584 0-15.17 0-22.756 0 5.462 63.563 28.217 74.941 68.267 34.133-20.84-6.335-36.011-17.713-45.511-34.133z" />
<glyph unicode="&#xe91b;" horiz-adv-x="1001" d="M557.511 15.644c30.34-15.171 30.34-15.171 0 0z" />
<glyph unicode="&#xe91c;" horiz-adv-x="1001" d="M921.6 15.644c30.34-15.171 30.34-15.171 0 0z" />
<glyph unicode="&#xe91d;" horiz-adv-x="1001" d="M557.511-7.111c0-15.171 0-30.34 0-45.511-15.171 0-30.34 0-45.511 0 7.584 22.756 22.756 37.927 45.511 45.511z" />
<glyph unicode="&#xe91e;" horiz-adv-x="1001" d="M921.6-7.111c0-15.171 0-30.34 0-45.511-22.756 0-45.511 0-68.267 0 10.766 32.001 33.521 47.172 68.267 45.511z" />
<glyph unicode="&#xe91f;" horiz-adv-x="5712" d="M1331.2 971.378c0-174.459 0-348.918 0-523.378 30.34 0 60.682 0 91.022 0 0 68.267 0 136.533 0 204.8 43.017 4.631 77.15-10.54 102.4-45.511 31.089-42.56 57.635-88.071 79.644-136.533 27.052-21.133 57.394-28.718 91.022-22.756-11.569 76.265-41.911 144.532-91.022 204.8 96.757 116.317 89.172 222.51-22.756 318.578-83.438 0-166.873 0-250.311 0zM1422.222 903.111c123.661 11.842 169.172-37.462 136.533-147.911-41.991-25.668-87.502-37.046-136.533-34.133 0 60.682 0 121.363 0 182.044z" />
<glyph unicode="&#xe920;" horiz-adv-x="5712" d="M2605.511 971.378c45.511 0 91.022 0 136.533 0 30.219-22.919 52.975-53.259 68.267-91.022-50.608-29.129-96.119-21.544-136.533 22.756-31.425-11.369-46.581-34.125-45.511-68.267 53.225-47.425 110.114-92.936 170.667-136.533 49.289-185.938-22.756-265.582-216.178-238.933-57.685 21.122-80.441 62.839-68.267 125.156 55.273-1.934 100.784-24.69 136.533-68.267 90.476 35.899 105.654 88.997 45.511 159.289-172.396 56.493-202.729 155.099-91.022 295.822z" />
<glyph unicode="&#xe921;" horiz-adv-x="5712" d="M4198.4 971.378c30.333 0 60.689 0 91.022 0 0-53.096 0-106.193 0-159.289 22.756 0 45.511 0 68.267 0 0-22.756 0-45.511 0-68.267-22.756 0-45.511 0-68.267 0-3.755-68.685 0.046-136.952 11.378-204.8 23.006-19.037 49.562-26.624 79.644-22.756 0-22.756 0-45.511 0-68.267-72.704-12.272-129.593 10.483-170.667 68.267-1.638 91.716-20.617 178.947-56.889 261.689 37.456 59.051 52.634 123.525 45.511 193.422z" />
<glyph unicode="&#xe922;" horiz-adv-x="5712" d="M-11.378 61.156c0 30.34 0 60.682 0 91.022 16.42-9.5 27.798-24.672 34.133-45.511 7.585 37.927 15.17 75.851 22.756 113.778 44.225-29.742 85.944-29.742 125.156 0 53.985 27.832 110.874 50.588 170.667 68.267 39.31 70.95 58.272 146.803 56.889 227.556 47.764 53.020 51.557 113.7 11.378 182.044-60.341-24.808-94.474-70.319-102.4-136.533 29.914-38.653 29.914-76.579 0-113.778-60.962 0.56-91.303 30.902-91.022 91.022 18.594 56.174 29.971 116.857 34.133 182.044 51.23 42.719 108.118 76.852 170.667 102.4 15.713 24.29 27.090 50.838 34.133 79.644 7.584-7.585 15.171-15.17 22.756-22.756 66.676 89.608 131.152 89.608 193.422 0-12.293-28.401-27.464-54.949-45.511-79.644 41.618-6.223 75.751-25.186 102.4-56.889 15.56 29.215 11.767 55.763-11.378 79.644 36.691 16.391 70.824 12.598 102.4-11.378 4.615-97.023-37.105-165.29-125.156-204.8-21.433 2.462-40.398 10.047-56.889 22.756-9.141-31.223-20.519-61.563-34.133-91.022 68.041-48.524 140.101-94.035 216.178-136.533 7.584 7.584 15.171 15.171 22.756 22.756-8.624-35.84-4.831-69.973 11.378-102.4-47.363-50.367-77.703-111.049-91.022-182.044 2.96-24.094 14.338-43.056 34.133-56.889 108.883 118.515 127.845 99.553 56.889-56.889-67.848-11.332-136.115-15.123-204.8-11.378 9.428 104.095 24.599 206.495 45.511 307.2-46.785 7.072-92.297 18.45-136.533 34.133-81.763-181.005-218.296-260.649-409.6-238.933-34.629-34.629-68.762-68.763-102.4-102.4-23.007 12.643-41.97 27.812-56.889 45.511z" />
<glyph unicode="&#xe923;" horiz-adv-x="5712" d="M1740.8 812.089c30.085 3.868 56.632-3.718 79.644-22.756 7.584-75.851 15.171-151.704 22.756-227.556 45.511-60.682 91.022-60.682 136.533 0 7.584 75.851 15.171 151.704 22.756 227.556 23.013 19.038 49.559 26.623 79.644 22.756 0-121.362 0-242.727 0-364.089-79.968 6.005-163.405 9.799-250.311 11.378-20.849 8.515-39.813 19.893-56.889 34.133-31.378 103.219-42.755 209.413-34.133 318.578z" />
<glyph unicode="&#xe924;" horiz-adv-x="5712" d="M2127.644 812.089c79.968-6.005 163.408-9.798 250.311-11.378 20.844-8.516 39.822-19.894 56.889-34.133 31.38-103.219 42.758-209.413 34.133-318.578-30.083-3.868-56.639 3.718-79.644 22.756-7.578 75.851-15.178 151.704-22.756 227.556-45.511 60.682-91.022 60.682-136.533 0-7.584-75.851-15.171-151.704-22.756-227.556-23.013-19.037-49.559-26.624-79.644-22.756 0 121.362 0 242.727 0 364.089z" />
<glyph unicode="&#xe925;" horiz-adv-x="5712" d="M2855.822 812.089c153.099-12.338 304.811-16.13 455.111-11.378 18.955-18.963 37.934-37.926 56.889-56.889 11.355-98.318 15.155-196.924 11.378-295.822-22.756 0-45.511 0-68.267 0 3.755 76.229-0.046 152.080-11.378 227.556-26.010 77.717-63.943 85.302-113.778 22.756-11.355-83.094-15.132-166.532-11.378-250.311-30.333 0-60.689 0-91.022 0 3.755 83.779-0.023 167.217-11.378 250.311-37.934 60.682-75.844 60.682-113.778 0-11.355-83.094-15.132-166.532-11.378-250.311-30.333 0-60.689 0-91.022 0 0 121.362 0 242.727 0 364.089z" />
<glyph unicode="&#xe926;" horiz-adv-x="5712" d="M3538.489 812.089c-44.942-26.087-79.076-64.013-102.4-113.778-30.97-108.64 3.163-188.284 102.4-238.933 94.299 0.501 185.321-3.293 273.067-11.378 8.351 101.651-3.026 200.258-34.133 295.822-67.903 59.166-147.547 81.921-238.933 68.267zM3584 743.822c72.795-4.469 118.306-42.396 136.533-113.778-68.267-151.704-136.533-151.704-204.8 0 13.471 43.748 36.227 81.674 68.267 113.778z" />
<glyph unicode="&#xe927;" horiz-adv-x="5712" d="M3857.067 812.089c87.29-8.521 178.313-8.521 273.067 0 0-22.756 0-45.511 0-68.267-63.078 6.372-119.967-8.798-170.667-45.511-28.149-81.012-39.526-164.448-34.133-250.311-22.756 0-45.511 0-68.267 0 0 121.362 0 242.727 0 364.089z" />
<glyph unicode="&#xe928;" horiz-adv-x="5712" d="M216.178 539.022c-19.944-2.979-35.114 4.608-45.511 22.756 34.295 87.718 49.465 80.131 45.511-22.756z" />
<glyph unicode="&#xe929;" horiz-adv-x="5712" d="M398.222 516.267c-23.324 9.025-27.118 24.194-11.378 45.511 10.565-13.526 14.359-28.697 11.378-45.511z" />
<glyph unicode="&#xe92a;" horiz-adv-x="5712" d="M648.533 516.267c17.080 24.428 39.836 28.219 68.267 11.378-21.572-10.986-44.328-14.78-68.267-11.378z" />
<glyph unicode="&#xe92b;" horiz-adv-x="5712" d="M307.2 448c30.34-15.171 30.34-15.171 0 0z" />
<glyph unicode="&#xe92c;" horiz-adv-x="5712" d="M307.2 425.244c-15.171-15.171-15.171-15.171 0 0z" />
<glyph unicode="&#xe92d;" horiz-adv-x="5712" d="M216.178 311.467c30.34-15.171 30.34-15.171 0 0z" />
<glyph unicode="&#xe92e;" horiz-adv-x="5712" d="M216.178 288.711c-15.17-22.756-30.341-45.511-45.511-68.267-31.253-3.566-61.594 0.228-91.022 11.378 48.434 14.909 93.945 33.874 136.533 56.889z" />
<glyph unicode="&#xe92f;" horiz-adv-x="5712" d="M1353.956 220.444c-59.194-64.56-59.194-129.035 0-193.422 111.532 2.403 225.31-1.39 341.333-11.378-14.668 69.332 8.087 118.636 68.267 147.911-90.192 2.783-181.214-1.010-273.067-11.378-119.109 25.482-119.109 44.444 0 56.889-44.89 11.275-90.401 15.066-136.533 11.378zM1399.467 152.178c54.568-31.455 58.361-69.382 11.378-113.778-18.962 18.962-37.927 37.927-56.889 56.889 20.036 16.118 35.207 35.080 45.511 56.889zM1558.756 152.178c60.002-37.633 52.415-49.011-22.756-34.133 12.652 8.706 20.237 20.084 22.756 34.133zM1536 61.156c34.925 29.307 72.852 29.307 113.778 0-37.94-26.542-75.867-26.542-113.778 0z" />
<glyph unicode="&#xe930;" horiz-adv-x="5712" d="M3492.978-52.622c0 22.756 0 45.511 0 68.267 51.564-8.165 93.275 7.004 125.156 45.511 41.142-43.142 90.453-54.52 147.911-34.133-121.583 44.194-114.005 63.158 22.756 56.889-4.983-26.738 2.594-49.493 22.756-68.267 14.768 48.335 33.746 93.846 56.889 136.533 18.091-60.559 48.447-113.655 91.022-159.289 22.756 30.34 45.511 60.682 68.267 91.022 38.389-102.892 91.5-102.892 159.289 0 10.991-21.572 14.768-44.328 11.378-68.267 60.689 0 121.355 0 182.044 0 6.098 59.606-1.479 116.495-22.756 170.667-83.012 1.413-166.457-2.38-250.311-11.378 3.641-38.666-0.137-76.593-11.378-113.778-37.296 133.411-82.807 140.998-136.533 22.756-2.298 66.792-36.432 97.132-102.4 91.022-50.517-25.068-99.829-25.068-147.911 0-38.935 1.381-69.268-13.788-91.022-45.511-56.661 58.284-113.55 58.284-170.667 0-17.727 55.232-44.282 55.232-79.644 0-39.344 58.684-81.055 58.684-125.156 0-15.178 15.171-30.333 30.34-45.511 45.511 5.325-76.265 5.325-152.116 0-227.556 15.178 0 30.333 0 45.511 0 18.66 52.618 37.615 105.715 56.889 159.289 4.983-32.722 16.361-63.062 34.133-91.022 15.747 11.953 27.125 27.122 34.133 45.511 49.425-22.958 75.958-60.885 79.644-113.778 15.178 0 30.333 0 45.511 0zM4266.667 174.933c22.756 0 45.511 0 68.267 0-22.756-182.044-45.511-182.044-68.267 0zM3697.778 152.178c60.006-37.633 52.406-49.011-22.756-34.133 12.652 8.706 20.23 20.084 22.756 34.133zM4152.889 152.178c41.802-3.174 49.38-18.343 22.756-45.511-18.159 10.397-25.737 25.568-22.756 45.511zM3447.467 129.422c6.781-64.526-8.397-75.903-45.511-34.133 12.379 16.32 27.557 27.698 45.511 34.133zM3515.733 129.422c72.226-10.29 79.804-33.046 22.756-68.267-45.943 14.402-53.544 37.158-22.756 68.267z" />
<glyph unicode="&#xe931;" horiz-adv-x="5712" d="M1968.356 174.933c-62.507 7.132-123.187-0.455-182.044-22.756-30.34-37.927-30.34-75.851 0-113.778 105.122-22.603 211.315-30.188 318.578-22.756 11.61 65.713-3.561 118.809-45.511 159.289 8.74-49.261-6.431-87.188-45.511-113.778-39.080 26.59-54.252 64.517-45.511 113.778zM1968.356 174.933c30.34 0 60.682 0 91.022 0 8.74-49.261-6.431-87.188-45.511-113.778-39.080 26.59-54.252 64.517-45.511 113.778zM1831.822 129.422c72.228-10.29 79.815-33.046 22.756-68.267-45.95 14.402-53.535 37.158-22.756 68.267z" />
<glyph unicode="&#xe932;" horiz-adv-x="5712" d="M2241.422 174.933c-39.44-55.671-58.402-116.351-56.889-182.044 31.512 23.905 54.267 54.247 68.267 91.022 8.369-32.085 27.329-54.841 56.889-68.267 30.288 15.16 64.421 15.16 102.4 0 18.955 3.793 37.934 7.584 56.889 11.378-121.583 44.194-114.005 63.158 22.756 56.889-4.983-26.738 2.594-49.493 22.756-68.267 21.982 43.145 29.559 88.656 22.756 136.533 22.756 0 45.511 0 68.267 0-6.804-47.878 0.774-93.389 22.756-136.533 15.747 11.953 27.125 27.122 34.133 45.511 15.679-19.495 34.634-34.664 56.889-45.511 49.425 4.003 102.514 7.794 159.289 11.378 60.689 45.511 60.689 91.022 0 136.533-56.775 3.584-109.864 7.375-159.289 11.378-22.255-10.848-41.21-26.016-56.889-45.511-22.96 26.355-53.294 41.524-91.022 45.511-55.478-19.772-108.567-19.772-159.289 0-65.058-6.626-95.391-44.553-91.022-113.778-15.861 47.432-42.416 85.358-79.644 113.778zM2400.711 152.178c60.006-37.633 52.406-49.011-22.756-34.133 12.652 8.706 20.23 20.084 22.756 34.133zM2810.311 152.178c54.568-31.455 58.368-69.382 11.378-113.778-40.687 34.659-44.487 72.586-11.378 113.778zM2719.289 129.422c24.417-17.080 28.217-39.836 11.378-68.267-39.322 19.395-43.122 42.15-11.378 68.267z" />
<glyph unicode="&#xe933;" horiz-adv-x="5712" d="M5700.267 129.422c-23.939 23.45-54.295 38.618-91.022 45.511-51.723-43.529-112.39-66.285-182.044-68.267 0 22.756 0 45.511 0 68.267-117.146 13.053-227.146-2.116-329.956-45.511-21.754 31.724-52.087 46.892-91.022 45.511-53.089-30.34-106.2-30.34-159.289 0-38.935 1.381-69.268-13.788-91.022-45.511-19.092 25.58-45.648 40.751-79.644 45.511-65.286-9.612-133.552-13.405-204.8-11.378 25.577-5.671 48.333-17.048 68.267-34.133-30.333-22.756-30.333-45.511 0-68.267-19.934-17.085-42.689-28.463-68.267-34.133 84.764 22.637 168.209 15.053 250.311-22.756-11.947-15.756-27.125-27.134-45.511-34.133-59.733 36.489-82.489 28.904-68.267-22.756 45.511 0 91.022 0 136.533 0 13.426 28.809 24.804 59.149 34.133 91.022 45.511-30.34 91.022-30.34 136.533 0 11.15-29.427 14.95-59.77 11.378-91.022 15.178 0 30.333 0 45.511 0 0 22.756 0 45.511 0 68.267 50.563-7.327 92.297 7.842 125.156 45.511 65.855-29.12 137.921-44.291 216.178-45.511 78.256 1.22 150.323 16.391 216.178 45.511 40.277-43.647 89.589-55.025 147.911-34.133-121.583 44.194-114.005 63.158 22.756 56.889 0 15.171 0 30.34 0 45.511zM4653.511 152.178c81.806-31.974 85.606-69.898 11.378-113.778-40.687 34.659-44.487 72.586-11.378 113.778zM4835.556 152.178c54.568-31.455 58.368-69.382 11.378-113.778-18.955 18.962-37.934 37.927-56.889 56.889 20.048 16.118 35.203 35.080 45.511 56.889zM4994.844 152.178c54.568-31.455 58.368-69.382 11.378-113.778-40.687 34.659-44.487 72.586-11.378 113.778zM5154.133 129.422c72.226-10.29 79.804-33.046 22.756-68.267-45.943 14.402-53.544 37.158-22.756 68.267zM5427.2 83.911c41.802-3.174 49.38-18.343 22.756-45.511-18.159 10.397-25.737 25.568-22.756 45.511z" />
<glyph unicode="&#xe934;" horiz-adv-x="5712" d="M2992.356 83.911c25.054 24.992 55.387 28.786 91.022 11.378-29.423-11.15-59.779-14.944-91.022-11.378z" />
<glyph unicode="&#xe935;" horiz-adv-x="935" d="M389.565 971.13c0-29.681 0-59.362 0-89.043-44.522-7.42-89.043-14.841-133.565-22.261-80.252-43.895-147.035-103.257-200.348-178.087-16.988-41.592-39.249-78.694-66.783-111.304 0-103.885 0-207.767 0-311.652 34.97-47.529 64.651-99.47 89.043-155.826 52.502-45.174 104.444-89.696 155.826-133.565 28.739 5.283 51-2.137 66.783-22.261 96.463 0 192.928 0 289.391 0 166.836 77.757 278.141 203.901 333.913 378.435 0 59.363 0 118.724 0 178.087-23.096 31.84-37.935 68.942-44.522 111.304-65.151 62.179-50.312 99.281 44.522 111.304 0 22.261 0 44.522 0 66.783-49.615 12.361-86.715 42.042-111.304 89.043-37.766-19.224-63.737-48.905-77.913-89.043-70.516 49.471-148.429 79.152-233.739 89.043 0 29.681 0 59.362 0 89.043-37.102 0-74.202 0-111.304 0zM434.087 793.043c-27.964 0.859-50.225-10.271-66.783-33.391 27.875-45.441 42.714-97.382 44.522-155.826-3.711-48.233-7.42-96.463-11.13-144.696-7.42 7.42-14.841 14.841-22.261 22.261-8.33-20.395-19.46-38.948-33.391-55.652 30.322-45.288 52.582-93.52 66.783-144.696 61.139 9.519 98.242 46.621 111.304 111.304-49.134 127.626-56.556 257.483-22.261 389.565-13.232 10.337-28.073 14.047-44.522 11.13 91.051 25.644 172.673 3.383 244.87-66.783 174.572-168.21 196.833-353.716 66.783-556.522 1.456 9.755-2.253 17.176-11.13 22.261-34.346-41.813-75.157-75.204-122.435-100.174 13.232-10.336 28.073-14.047 44.522-11.13-110.87-74.14-229.596-92.69-356.174-55.652 26.615 14.565 26.615 25.696 0 33.391-80.092-19.338-139.454 10.342-178.087 89.043 23.307 12.862 19.597 27.704-11.13 44.522-8.877-5.084-12.587-12.506-11.13-22.261-36.539 39.789-58.8 88.022-66.783 144.696-31.198 164.521 13.324 305.506 133.565 422.957 78.877 55.287 160.501 73.837 244.87 55.652z" />
<glyph unicode="&#xe936;" horiz-adv-x="935" d="M300.522 948.87c29.68-14.841 29.68-14.841 0 0z" />
<glyph unicode="&#xe937;" horiz-adv-x="935" d="M300.522 926.609c-14.841-14.841-14.841-14.841 0 0z" />
<glyph unicode="&#xe938;" horiz-adv-x="935" d="M523.13 926.609c29.68-14.841 29.68-14.841 0 0z" />
<glyph unicode="&#xe939;" horiz-adv-x="935" d="M278.261 904.348c-7.42-14.841-14.841-29.681-22.261-44.522-51.043 17.837-43.622 32.678 22.261 44.522z" />
<glyph unicode="&#xe93a;" horiz-adv-x="935" d="M434.087 793.043c7.42-29.681 14.841-29.681 22.261 0 16.449 2.916 31.29-0.794 44.522-11.13-34.295-132.083-26.873-261.939 22.261-389.565-13.063-64.683-50.165-101.786-111.304-111.304-14.2 51.176-36.461 99.408-66.783 144.696 13.931 16.705 25.061 35.257 33.391 55.652 7.42-7.42 14.841-14.841 22.261-22.261 3.711 48.233 7.42 96.463 11.13 144.696-1.808 58.444-16.647 110.385-44.522 155.826 16.558 23.12 38.819 34.25 66.783 33.391z" />
<glyph unicode="&#xe93b;" horiz-adv-x="935" d="M55.652 681.739c-14.841 29.68-14.841 29.68 0 0z" />
<glyph unicode="&#xe93c;" horiz-adv-x="935" d="M367.304 704c26.441-44.43 11.6-62.983-44.522-55.652 19.601 15.767 34.442 34.317 44.522 55.652z" />
<glyph unicode="&#xe93d;" horiz-adv-x="935" d="M923.826 659.478c0-22.261 0-44.522 0-66.783-14.841 7.42-29.68 14.841-44.522 22.261 0 29.68 14.841 44.522 44.522 44.522z" />
<glyph unicode="&#xe93e;" horiz-adv-x="935" d="M77.913 102.957c-14.841-14.841-14.841-14.841 0 0z" />
<glyph unicode="&#xe93f;" horiz-adv-x="935" d="M233.739-30.609c0-7.42 0-14.841 0-22.261-14.918 10.714-14.918 18.136 0 22.261z" />
<glyph unicode="&#xe940;" glyph-name="left" horiz-adv-x="635" d="M460.8 970.24c34.134 0 68.266 0 102.4 0 13.654-27.307 34.134-47.787 61.44-61.44 0-34.133 0-68.267 0-102.4-122.45-108.796-238.504-224.85-348.16-348.16 109.656-123.31 225.71-239.364 348.16-348.16 0-34.134 0-68.266 0-102.4-27.306-13.654-47.786-34.134-61.44-61.44-34.134 0-68.266 0-102.4 0-144.058 164.555-301.071 314.743-471.040 450.56 0 40.96 0 81.92 0 122.88 169.969 135.817 326.982 286.004 471.040 450.56z" />
<glyph unicode="&#xe941;" glyph-name="right" horiz-adv-x="614" d="M51.2 970.24c34.133 0 68.267 0 102.4 0 143.36-157.013 293.546-307.2 450.56-450.56 0-40.96 0-81.92 0-122.88-157.014-143.36-307.2-293.546-450.56-450.56-34.133 0-68.267 0-102.4 0-13.653 27.306-34.133 47.786-61.44 61.44 0 34.134 0 68.266 0 102.4 122.45 108.796 238.504 224.85 348.16 348.16-109.656 123.31-225.71 239.364-348.16 348.16 0 34.133 0 68.267 0 102.4 27.307 13.653 47.787 34.133 61.44 61.44z" />
</font>
</defs>
</svg>
